<svg width="453" height="594" viewBox="0 0 453 594" fill="none" xmlns="http://www.w3.org/2000/svg"><path d="M371.938 347.666L452.059 292v224.295l-80.121 55.666V347.666z" fill="url(#paint0_linear_685_40288)" fill-opacity=".6"/><path d="M371.939 347.666L291.819 292v228.334L371.939 576V347.666z" fill="url(#paint1_linear_685_40288)" fill-opacity=".6"/><path d="M240.855 223.92L337.712 168v225.318l-96.857 55.92V223.92z" fill="url(#paint2_linear_685_40288)" fill-opacity=".6"/><path d="M240.856 223.92L144 168v229.376l96.856 55.92V223.92z" fill="url(#paint3_linear_685_40288)" fill-opacity=".6"/><path d="M316.801 176.51v.001l-.085.048-70.081 40.456c-2.668 1.541-3.529 2.009-4.374 2.235a7.351 7.351 0 01-3.811 0c-.845-.226-1.705-.694-4.374-2.235l-70.165-40.504c-2.669-1.541-3.506-2.052-4.124-2.671a7.356 7.356 0 01-1.906-3.301c-.226-.845-.251-1.824-.251-4.907V25.772c0-2.06.002-3.452.075-4.533.072-1.054.202-1.588.354-1.953a5.628 5.628 0 013.047-3.047c.365-.15.899-.281 1.952-.353 1.081-.074 2.474-.075 4.534-.075H313.12c2.059 0 3.452.001 4.533.075 1.054.072 1.588.202 1.953.353a5.634 5.634 0 013.047 3.047c.151.365.281.9.353 1.953.074 1.081.075 2.474.075 4.533v139.86c0 3.083-.024 4.062-.251 4.907a7.354 7.354 0 01-1.905 3.301c-.619.619-1.455 1.13-4.124 2.67z" fill="#000" stroke="#000" stroke-width="6.064"/><g opacity=".94"><path d="M175.705 130.548h.842v-3.347h3.794v3.347h.842v-7.277h-.842v3.202h-3.794v-3.202h-.842v7.277zm10.22.062c1.684 0 2.838-1.081 3.077-2.474h-.873c-.198.894-1.04 1.663-2.194 1.663-1.424 0-2.411-1.174-2.411-2.837 0-1.726.998-2.963 2.453-2.963 1.123 0 1.944.759 2.152 1.663h.873c-.218-1.393-1.372-2.453-3.015-2.453-1.954 0-3.357 1.528-3.357 3.742 0 2.152 1.414 3.659 3.295 3.659zm5.984-.062h.8v-6.518h2.599v-.759H189.3v.759h2.609v6.518zm3.833 0l.727-1.965h3.129l.748 1.965h.915l-2.796-7.277h-.863l-2.775 7.266.915.011zm.987-2.744l1.31-3.587 1.31 3.587h-2.62zm8.114 2.848c1.674 0 2.745-1.476 2.745-3.701 0-2.235-1.061-3.721-2.724-3.721-1.663 0-2.734 1.486-2.734 3.721 0 2.225 1.061 3.701 2.713 3.701zm.021-.738c-1.195 0-1.933-1.164-1.933-2.994 0-1.788.727-2.952 1.902-2.952 1.206 0 1.954 1.185 1.954 2.994 0 1.788-.738 2.952-1.923 2.952zm4.24-2.433h3.639v-.603h-3.639v.603z" fill="#AC72F0"/><path d="M216.974 130.631c1.736 0 2.901-1.549 2.901-3.721 0-2.173-1.154-3.732-2.88-3.732-1.736 0-2.89 1.559-2.89 3.752 0 2.163 1.144 3.701 2.869 3.701zm.032-.988c-1.081 0-1.747-1.122-1.747-2.785 0-1.612.634-2.682 1.705-2.682 1.081 0 1.767 1.154 1.767 2.775 0 1.58-.665 2.692-1.725 2.692zm6.526.988c1.736 0 2.9-1.549 2.9-3.721 0-2.173-1.154-3.732-2.879-3.732-1.736 0-2.89 1.559-2.89 3.752 0 2.163 1.144 3.701 2.869 3.701zm.031-.988c-1.081 0-1.746-1.122-1.746-2.785 0-1.612.634-2.682 1.705-2.682 1.081 0 1.767 1.154 1.767 2.775 0 1.58-.665 2.692-1.726 2.692zm3.616.905h4.979v-1.06h-3.388l1.081-.957c1.206-1.07 2.255-1.819 2.255-3.108 0-1.289-1.029-2.245-2.422-2.245-1.486 0-2.526.956-2.588 2.38h1.195c.094-.8.635-1.32 1.383-1.32.769 0 1.279.489 1.279 1.237 0 .853-.801 1.403-2.121 2.537l-1.653 1.424v1.112z" fill="#fff"/></g><path d="M308.4 80.395l1.71 3.71 4.056.48-2.998 2.774.796 4.006-3.564-1.995-3.565 1.995.796-4.006-2.998-2.774 4.056-.48 1.711-3.71z" fill="#fff"/><path d="M308.4 97.025l1.71 3.709 4.056.481-2.998 2.773.796 4.007L308.4 106l-3.565 1.995.796-4.007-2.998-2.773 4.056-.481 1.711-3.709zm0 16.629l1.71 3.709 4.056.481-2.998 2.773.796 4.007-3.564-1.995-3.565 1.995.796-4.007-2.998-2.773 4.056-.481 1.711-3.709z" fill="#000"/><path opacity=".95" d="M180.765 92.427c2.4 0 4.167-1.37 4.801-3.093l-1.12-.294c-.515 1.296-1.855 2.282-3.696 2.282-2.503 0-4.153-1.958-4.153-4.285 0-2.268 1.65-4.197 4.153-4.197 1.841 0 3.196 1.001 3.696 2.283l1.149-.28c-.619-1.723-2.415-3.107-4.845-3.107-3.033 0-5.331 2.312-5.331 5.316 0 3.048 2.298 5.375 5.346 5.375zm14.26-9.425v-1.075h-7.26v10.308h7.246V91.16h-6.082v-3.652h5.345v-1.03h-5.345v-3.476h6.096zm9.234 9.233h1.355l-2.768-4.108c1.678-.31 2.577-1.679 2.577-3.063 0-1.502-1.149-3.137-3.27-3.137h-4.771v10.308h1.164v-4.05h3.018l2.695 4.05zm-5.713-9.248h3.578c1.34 0 2.165 1.002 2.165 2.077 0 1.09-.81 2.076-2.18 2.076h-3.563v-4.153zm17.137-1.06h-8.791v1.075h3.814v9.233h1.178v-9.233h3.799v-1.075zm1.767 10.308h1.178V81.927h-1.178v10.308zm10.978-9.233v-1.075h-7.142v10.308h1.178v-4.58h5.213V86.61h-5.213v-3.608h5.964zm1.827 9.233h1.178V81.927h-1.178v10.308zm11.096-9.233v-1.075h-7.26v10.308h7.245V91.16h-6.082v-3.652h5.346v-1.03h-5.346v-3.476h6.097zm6.274-1.075h-3.917v10.308h3.917c3.195 0 5.066-2.194 5.066-5.154s-1.871-5.154-5.066-5.154zm-.015 9.233h-2.739v-8.173h2.739c2.518 0 3.903 1.797 3.903 4.065 0 2.341-1.385 4.108-3.903 4.108zm-64.327 21.075h2.106l-3.961-10.308h-2.622l-3.946 10.308h2.091l.854-2.238h4.639l.839 2.238zm-4.815-4.02l1.649-4.359 1.649 4.359h-3.298zm12.183 4.227c2.474 0 4.123-1.429 4.123-3.196 0-1.679-1.193-2.341-2.769-2.827l-2.562-.825c-.677-.206-.987-.516-.987-.972 0-.604.648-1.119 1.664-1.119 1.164 0 2.121.574 2.548 1.414l1.87-.545c-.559-1.429-2.209-2.651-4.432-2.651-2.15 0-3.711 1.355-3.696 2.96-.015 1.325.971 2.194 2.326 2.621l2.636.825c.987.324 1.355.692 1.355 1.237 0 .677-.751 1.296-1.959 1.296-1.487 0-2.532-.854-2.945-1.929l-1.929.589c.574 1.605 2.238 3.122 4.757 3.122zm10.091 0c2.474 0 4.123-1.429 4.123-3.196 0-1.679-1.193-2.341-2.768-2.827l-2.563-.825c-.677-.206-.986-.516-.986-.972 0-.604.648-1.119 1.664-1.119 1.163 0 2.12.574 2.547 1.414l1.871-.545c-.56-1.429-2.209-2.651-4.433-2.651-2.15 0-3.711 1.355-3.696 2.96-.015 1.325.972 2.194 2.327 2.621l2.636.825c.986.324 1.354.692 1.354 1.237 0 .677-.751 1.296-1.958 1.296-1.488 0-2.533-.854-2.945-1.929l-1.93.589c.575 1.605 2.239 3.122 4.757 3.122zm10.857 0c3.108 0 5.405-2.327 5.405-5.375 0-3.034-2.297-5.346-5.405-5.346-3.121 0-5.419 2.312-5.419 5.346 0 3.048 2.298 5.375 5.419 5.375zm0-1.871c-2.046 0-3.372-1.531-3.372-3.504 0-1.93 1.326-3.476 3.372-3.476 2.033 0 3.373 1.546 3.373 3.476 0 1.973-1.34 3.504-3.373 3.504zm12.321 1.871c2.724 0 4.462-1.665 4.933-3.314l-1.959-.501c-.338 1.017-1.443 1.915-3.004 1.915-2.032 0-3.328-1.635-3.328-3.49 0-1.856 1.296-3.431 3.328-3.431 1.561 0 2.666.927 3.004 1.929l1.974-.486c-.471-1.635-2.209-3.343-4.992-3.343-3.063 0-5.375 2.312-5.375 5.346 0 3.048 2.312 5.375 5.419 5.375zm6.796-.207h2.047v-10.308h-2.047v10.308zm11.922 0h2.105l-3.961-10.308h-2.621l-3.947 10.308h2.091l.854-2.238h4.639l.84 2.238zm-4.816-4.02l1.649-4.359 1.65 4.359h-3.299zm15.311-6.288h-8.939v1.826h3.461v8.482h2.017v-8.482h3.461v-1.826zm9.214 1.826v-1.826h-7.598v10.308h7.584v-1.826h-5.611v-2.533h4.874v-1.767h-4.874v-2.356h5.625z" fill="#fff"/><path fill-rule="evenodd" clip-rule="evenodd" d="M325.285 60V25.994c0-4.037 0-6.055-.66-7.647a8.66 8.66 0 00-4.688-4.688c-1.592-.659-3.61-.659-7.646-.659H166.763c-4.036 0-6.054 0-7.646.66a8.66 8.66 0 00-4.688 4.687c-.659 1.592-.659 3.61-.659 7.647V60h171.515z" fill="#7B42BC"/><g clip-path="url(#clip0_685_40288)" fill="#fff"><path d="M209.692 35.055h-3.986v-2.381h10.673v2.381h-3.986v11.907h-2.701V35.055z"/><path d="M219.2 45.023a10.906 10.906 0 003.189-.492l.408 1.97a11.218 11.218 0 01-3.849.666c-3.278 0-4.415-1.523-4.415-4.032V40.37c0-2.208.985-4.072 4.33-4.072s4.097 1.949 4.097 4.2v2.232h-5.784v.535c0 1.265.436 1.757 2.024 1.757zm-2.024-4.394h3.324v-.517c0-.985-.301-1.67-1.587-1.67-1.287 0-1.737.685-1.737 1.67v.517zm12.786-1.931c-.961.434-1.887.944-2.768 1.524v6.74h-2.615v-10.45h2.208l.173 1.158a11.592 11.592 0 012.743-1.371l.259 2.399zm6.386 0a20.21 20.21 0 00-2.764 1.524v6.74h-2.616v-10.45h2.208l.17 1.158a11.612 11.612 0 012.746-1.371l.256 2.399zm8.746 8.264h-2.144l-.192-.709c-.925.6-2.005.92-3.108.921-1.91 0-2.725-1.307-2.725-3.107 0-2.127.925-2.938 3.044-2.938h2.509v-1.102c0-1.155-.319-1.563-1.991-1.563-.974.01-1.943.117-2.895.319l-.323-1.992a13.585 13.585 0 013.579-.492c3.282 0 4.253 1.155 4.253 3.77l-.007 6.893zm-2.616-3.955h-1.913c-.858 0-1.095.238-1.095 1.031 0 .709.237 1.063 1.063 1.063a4.14 4.14 0 001.97-.535l-.025-1.559zm10.656-8.873a7.498 7.498 0 00-1.502-.174c-1.028 0-1.177.45-1.177 1.244v1.307h2.658l-.145 2.08h-2.506v8.37h-2.615v-8.37h-1.673v-2.08h1.673v-1.456c0-2.165 1.006-3.239 3.32-3.239a8.328 8.328 0 012.251.301l-.284 2.017zm5.099 13.033c-3.579 0-4.557-1.977-4.557-4.103v-2.65c0-2.127.964-4.115 4.543-4.115s4.547 1.97 4.547 4.114v2.65c.014 2.127-.939 4.104-4.533 4.104zm0-8.64c-1.392 0-1.927.621-1.927 1.801v2.807c0 1.18.535 1.803 1.927 1.803 1.393 0 1.932-.623 1.932-1.803v-2.807c0-1.162-.535-1.8-1.932-1.8zm11.277.171a20.21 20.21 0 00-2.764 1.524v6.74h-2.616v-10.45h2.208l.17 1.158a11.683 11.683 0 012.761-1.371l.241 2.399zm7.2 8.264v-7.3c0-.557-.237-.837-.836-.837s-1.772.387-2.722.883v7.254h-2.618v-10.45h1.995l.258.878a10.487 10.487 0 014.179-1.091c1.009 0 1.63.407 1.973 1.113a10.281 10.281 0 014.203-1.113c1.737 0 2.357 1.219 2.357 3.086v7.577h-2.616v-7.3c0-.557-.237-.837-.836-.837-.959.1-1.886.401-2.721.883v7.254h-2.616z"/><path fill-rule="evenodd" clip-rule="evenodd" d="M182.313 30.126l6.769 3.909v7.817l-6.769-3.909v-7.817zm7.51 3.909v7.817l6.772-3.909v-7.817l-6.772 3.909zm-15.022-8.271v7.817l6.768 3.909v-7.818l-6.768-3.908zm7.512 20.854l6.769 3.909v-7.818l-6.769-3.908v7.817z"/></g><g opacity=".95" fill="#fff"><path d="M237.989 180.606l-9.909 5.715v13.731l3.722 2.149V188.47l6.187-3.57v-4.294z"/><path d="M241.944 180.606v10.934h-3.956v-4.08l-3.724 2.149v14.01l3.724 2.153v-10.903h3.956v4.053l3.722-2.149v-14.018l-3.722-2.149z"/><path d="M241.944 205.776l9.909-5.715V186.33l-3.724-2.149v13.731l-6.185 3.57v4.294z"/></g><path d="M86.5 306.987L167 258v269.113L86.5 576.1V306.987z" fill="url(#paint4_linear_685_40288)" fill-opacity=".6"/><path d="M86.5 306.987L6 258v287.013L86.5 594V306.987z" fill="url(#paint5_linear_685_40288)" fill-opacity=".6"/><g clip-path="url(#clip1_685_40288)" filter="url(#filter0_d_685_40288)"><path d="M164.381 119.894v131.119c0 2.89-.023 3.808-.235 4.6l2.745.736-2.745-.736a6.905 6.905 0 01-1.787 3.095c-.58.58-1.364 1.059-3.867 2.503l-65.78 37.973c-2.501 1.445-3.308 1.884-4.1 2.096a6.893 6.893 0 01-3.573 0c-.792-.212-1.599-.651-4.1-2.096l-65.78-37.973c-2.503-1.444-3.287-1.923-3.867-2.503a6.902 6.902 0 01-1.787-3.095l-2.745.736 2.745-.736c-.212-.792-.235-1.71-.235-4.6V119.894c0-1.93.002-3.236.07-4.25.068-.987.19-1.488.332-1.83a5.278 5.278 0 012.857-2.857c.342-.142.842-.264 1.83-.331 1.014-.069 2.32-.071 4.25-.071h136.433c1.93 0 3.236.002 4.25.071.987.067 1.488.189 1.83.331a5.277 5.277 0 012.857 2.857c.142.342.264.843.331 1.83.069 1.014.071 2.32.071 4.25z" fill="#000" stroke="#000" stroke-width="5.685"/><g opacity=".94"><path d="M21.465 217.747h.79v-3.138h3.556v3.138h.79v-6.822h-.79v3.002h-3.557v-3.002h-.789v6.822zm9.581.059c1.579 0 2.66-1.014 2.885-2.32h-.819c-.185.838-.974 1.559-2.056 1.559-1.335 0-2.26-1.101-2.26-2.66 0-1.618.935-2.777 2.299-2.777 1.052 0 1.822.711 2.017 1.559h.819c-.205-1.306-1.287-2.3-2.826-2.3-1.832 0-3.148 1.433-3.148 3.508 0 2.017 1.325 3.431 3.09 3.431zm6.051-.059h.887l2.495-6.822h-.78l-2.144 5.945-2.183-5.945h-.77l2.495 6.822zm4.19 0l.682-1.842h2.933l.702 1.842h.857l-2.621-6.822h-.81l-2.601 6.812.857.01zm.925-2.573l1.228-3.362 1.228 3.362h-2.456zm7.607 2.671c1.57 0 2.573-1.384 2.573-3.47 0-2.095-.994-3.489-2.553-3.489-1.56 0-2.563 1.394-2.563 3.489 0 2.086.994 3.47 2.543 3.47zm.02-.692c-1.12 0-1.813-1.092-1.813-2.807 0-1.676.683-2.768 1.784-2.768 1.13 0 1.832 1.111 1.832 2.807 0 1.676-.692 2.768-1.803 2.768zm3.975-2.281h3.41v-.565h-3.41v.565z" fill="#FFE959"/><path d="M61.192 217.825c1.628 0 2.72-1.452 2.72-3.489 0-2.036-1.082-3.498-2.7-3.498-1.628 0-2.71 1.462-2.71 3.518 0 2.027 1.073 3.469 2.69 3.469zm.03-.926c-1.014 0-1.638-1.052-1.638-2.611 0-1.511.595-2.515 1.598-2.515 1.014 0 1.657 1.082 1.657 2.602 0 1.482-.623 2.524-1.617 2.524zm6.118.926c1.628 0 2.719-1.452 2.719-3.489 0-2.036-1.082-3.498-2.7-3.498-1.627 0-2.709 1.462-2.709 3.518 0 2.027 1.072 3.469 2.69 3.469zm.03-.926c-1.014 0-1.638-1.052-1.638-2.611 0-1.511.595-2.515 1.598-2.515 1.014 0 1.657 1.082 1.657 2.602 0 1.482-.624 2.524-1.618 2.524zm3.39.848h4.667v-.994H72.25l1.014-.896c1.13-1.004 2.115-1.706 2.115-2.914 0-1.209-.965-2.105-2.271-2.105-1.394 0-2.368.896-2.427 2.231h1.121c.088-.75.594-1.237 1.296-1.237.721 0 1.199.458 1.199 1.159 0 .8-.75 1.316-1.988 2.378l-1.55 1.335v1.043z" fill="#fff"/></g><path d="M150.553 171.042l1.604 3.477 3.802.451-2.811 2.6.746 3.756-3.341-1.871-3.342 1.871.747-3.756-2.812-2.6 3.803-.451 1.604-3.477z" fill="#fff"/><path d="M150.554 186.632l1.604 3.477 3.802.451-2.811 2.6.746 3.756-3.341-1.871-3.342 1.871.747-3.756-2.812-2.6 3.803-.451 1.604-3.477zm0 15.591l1.604 3.477 3.802.451-2.811 2.6.746 3.755-3.341-1.87-3.342 1.87.747-3.755-2.812-2.6 3.803-.451 1.604-3.477z" fill="#000"/><path opacity=".95" d="M26.21 182.321c2.25 0 3.906-1.284 4.5-2.899l-1.05-.276c-.482 1.215-1.739 2.14-3.464 2.14-2.347 0-3.894-1.837-3.894-4.018 0-2.126 1.547-3.934 3.894-3.934 1.725 0 2.995.938 3.465 2.139l1.077-.262c-.58-1.615-2.264-2.913-4.542-2.913-2.844 0-4.998 2.168-4.998 4.984 0 2.858 2.154 5.039 5.011 5.039zm13.369-8.836v-1.007h-6.806v9.664h6.792v-1.008h-5.702v-3.424h5.012v-.966h-5.012v-3.259h5.716zm8.657 8.657h1.27l-2.596-3.852c1.574-.29 2.416-1.574 2.416-2.872 0-1.408-1.077-2.94-3.065-2.94h-4.473v9.664h1.09v-3.797h2.831l2.526 3.797zm-5.357-8.67h3.355c1.256 0 2.03.938 2.03 1.946 0 1.022-.76 1.947-2.044 1.947h-3.341v-3.893zm16.067-.994h-8.242v1.007h3.575v8.657h1.105v-8.657h3.562v-1.007zm1.656 9.664h1.104v-9.664h-1.104v9.664zm10.291-8.657v-1.007h-6.695v9.664h1.104v-4.294h4.887v-.98h-4.887v-3.383h5.591zm1.714 8.657h1.104v-9.664h-1.104v9.664zm10.402-8.657v-1.007h-6.806v9.664h6.792v-1.008h-5.702v-3.424h5.012v-.966h-5.012v-3.259h5.716zm5.882-1.007h-3.673v9.664h3.673c2.996 0 4.749-2.057 4.749-4.832s-1.753-4.832-4.75-4.832zm-.014 8.656h-2.568v-7.662h2.568c2.36 0 3.658 1.684 3.658 3.81 0 2.195-1.297 3.852-3.658 3.852zM28.57 200.142h1.974l-3.713-9.664h-2.458l-3.7 9.664h1.96l.802-2.099h4.348l.787 2.099zm-4.514-3.769l1.546-4.087 1.546 4.087h-3.092zm11.421 3.962c2.32 0 3.866-1.339 3.866-2.996 0-1.574-1.118-2.195-2.596-2.651l-2.402-.773c-.635-.193-.925-.483-.925-.911 0-.566.608-1.049 1.56-1.049 1.091 0 1.988.538 2.389 1.325l1.753-.511c-.525-1.339-2.07-2.485-4.155-2.485-2.016 0-3.48 1.27-3.466 2.775-.014 1.243.912 2.057 2.182 2.458l2.47.773c.926.304 1.271.649 1.271 1.159 0 .636-.704 1.215-1.836 1.215-1.395 0-2.375-.8-2.761-1.808l-1.809.552c.539 1.505 2.099 2.927 4.46 2.927zm9.461 0c2.32 0 3.866-1.339 3.866-2.996 0-1.574-1.119-2.195-2.596-2.651l-2.402-.773c-.635-.193-.925-.483-.925-.911 0-.566.607-1.049 1.56-1.049 1.09 0 1.988.538 2.388 1.325l1.754-.511c-.525-1.339-2.071-2.485-4.156-2.485-2.015 0-3.479 1.27-3.465 2.775-.014 1.243.911 2.057 2.181 2.458l2.471.773c.925.304 1.27.649 1.27 1.159 0 .636-.703 1.215-1.836 1.215-1.394 0-2.374-.8-2.76-1.808l-1.81.552c.54 1.505 2.1 2.927 4.46 2.927zm10.179 0c2.913 0 5.067-2.181 5.067-5.039 0-2.844-2.154-5.012-5.067-5.012-2.927 0-5.08 2.168-5.08 5.012 0 2.858 2.153 5.039 5.08 5.039zm0-1.753c-1.92 0-3.162-1.436-3.162-3.286 0-1.809 1.243-3.258 3.162-3.258 1.905 0 3.161 1.449 3.161 3.258 0 1.85-1.256 3.286-3.161 3.286zm11.55 1.753c2.554 0 4.183-1.56 4.625-3.106l-1.836-.47c-.318.953-1.353 1.795-2.816 1.795-1.906 0-3.12-1.532-3.12-3.272 0-1.74 1.214-3.217 3.12-3.217 1.463 0 2.498.87 2.816 1.809l1.85-.456c-.442-1.532-2.07-3.134-4.68-3.134-2.872 0-5.04 2.168-5.04 5.012 0 2.858 2.168 5.039 5.081 5.039zm6.372-.193h1.919v-9.664h-1.92v9.664zm11.176 0h1.974l-3.713-9.664h-2.458l-3.7 9.664h1.96l.801-2.099h4.35l.786 2.099zm-4.514-3.769l1.546-4.087 1.546 4.087h-3.092zm14.354-5.895h-8.38v1.712h3.244v7.952h1.891v-7.952h3.245v-1.712zm8.638 1.712v-1.712h-7.124v9.664h7.11v-1.712h-5.26v-2.375h4.57v-1.657h-4.57v-2.208h5.274z" fill="#fff"/><path fill-rule="evenodd" clip-rule="evenodd" d="M6 152h160.795v-31.96c0-3.784 0-5.676-.618-7.168a8.118 8.118 0 00-4.395-4.395c-1.492-.619-3.384-.619-7.168-.619H18.181c-3.783 0-5.675 0-7.168.619a8.12 8.12 0 00-4.395 4.395C6 114.364 6 116.256 6 120.04V152z" fill="#FFE959"/><g clip-path="url(#clip2_685_40288)" fill="#000"><path d="M60.907 125.911h2.777l-4.208 14.125h-3.97l-4.208-14.125h2.778l3.415 11.772 3.416-11.772zm10.485 14.136h-2.104l-.193-.701a5.651 5.651 0 01-3.075.911c-1.887 0-2.693-1.294-2.693-3.075 0-2.104.911-2.907 3.012-2.907h2.483v-1.08c0-1.147-.32-1.55-1.975-1.55-.962.009-1.92.116-2.861.319l-.32-1.975a13.545 13.545 0 013.543-.487c3.243 0 4.208 1.147 4.208 3.735l-.025 6.81zm-2.584-3.903h-1.911c-.85 0-1.08.235-1.08 1.02 0 .719.23 1.052 1.052 1.052a4.116 4.116 0 001.953-.529l-.014-1.543zm6.659-6.435v7.21c0 .551.232.828.828.828s1.753-.382 2.693-.87v-7.168h2.588v10.338h-1.974l-.253-.869a10.319 10.319 0 01-4.138 1.083c-1.718 0-2.332-1.209-2.332-3.054v-7.487l2.588-.011zm7.487 10.338v-14.55l2.588-.351v14.901h-2.588zm10.306-.2a7.219 7.219 0 01-2.268.403c-1.887 0-2.844-.891-2.844-2.735v-5.751H86.6v-2.055h1.547v-2.567l2.588-.351v2.928h2.65l-.168 2.055h-2.482v5.411a.813.813 0 00.239.688.814.814 0 00.693.224 4.899 4.899 0 001.294-.214l.298 1.964zm-72.643-17.755L31.8 143.855l11.26-21.763H20.618zm9.43 8.641h-1.753v-1.781h1.753v1.781zm0-2.672h-1.753v-1.782h1.753v1.782zm2.672 5.344h-1.77v-1.774h1.78l-.01 1.774zm0-2.672h-1.77v-1.781h1.78l-.01 1.781zm0-2.672h-1.77v-1.782h1.78l-.01 1.782zm2.658 2.672h-1.77v-1.781h1.78l-.01 1.781zm-1.781-2.672v-1.782h1.781v1.782h-1.781z"/></g><g opacity=".95" fill="#fff"><path d="M84.543 264.988l-9.29 5.358v12.873l3.49 2.014v-12.872l5.8-3.348v-4.025z"/><path d="M88.252 264.988v10.251h-3.708v-3.825l-3.492 2.015v13.133l3.492 2.019v-10.222h3.708v3.8l3.49-2.015v-13.141l-3.49-2.015z"/><path d="M88.252 288.585l9.29-5.358v-12.873l-3.492-2.015v12.873l-5.798 3.348v4.025z"/></g></g><g clip-path="url(#clip3_685_40288)"><path d="M449.517 161.896v131.119c0 2.89-.023 3.808-.235 4.6l2.746.736-2.746-.736a6.896 6.896 0 01-1.787 3.095c-.579.58-1.363 1.059-3.866 2.503l-65.78 37.973c-2.502 1.445-3.309 1.884-4.1 2.096a6.894 6.894 0 01-3.573 0c-.792-.212-1.599-.651-4.101-2.096l-65.78-37.973c-2.502-1.444-3.286-1.923-3.866-2.503a6.905 6.905 0 01-1.787-3.095l-2.745.736 2.745-.736c-.212-.792-.235-1.71-.235-4.6V161.896c0-1.931.001-3.236.07-4.25.068-.987.19-1.488.332-1.83a5.275 5.275 0 012.856-2.857c.343-.142.843-.264 1.831-.331 1.013-.069 2.319-.071 4.25-.071h136.432c1.931 0 3.237.002 4.25.071.988.067 1.489.189 1.831.331a5.28 5.28 0 012.857 2.857c.141.342.263.843.331 1.83.069 1.014.07 2.319.07 4.25z" fill="#000" stroke="#000" stroke-width="5.685"/><g opacity=".94"><path d="M311.603 259.749h.789v-3.138h3.557v3.138h.789v-6.822h-.789v3.002h-3.557v-3.002h-.789v6.822zm9.581.058c1.579 0 2.66-1.013 2.884-2.319h-.818c-.185.838-.975 1.559-2.056 1.559-1.335 0-2.261-1.101-2.261-2.66 0-1.618.935-2.777 2.3-2.777 1.052 0 1.822.711 2.017 1.559h.818c-.204-1.306-1.286-2.3-2.826-2.3-1.832 0-3.147 1.432-3.147 3.508 0 2.017 1.325 3.43 3.089 3.43zm6.938 0c1.578 0 2.66-1.013 2.884-2.319h-.818c-.186.838-.975 1.559-2.057 1.559-1.335 0-2.261-1.101-2.261-2.66 0-1.618.936-2.777 2.3-2.777 1.053 0 1.823.711 2.018 1.559h.818c-.204-1.306-1.286-2.3-2.826-2.3-1.832 0-3.148 1.432-3.148 3.508 0 2.017 1.326 3.43 3.09 3.43zm4.32-.058l.683-1.842h2.933l.702 1.842h.857l-2.621-6.822h-.809l-2.602 6.812.857.01zm.926-2.573l1.228-3.362 1.228 3.362h-2.456zm7.608 2.67c1.568 0 2.572-1.383 2.572-3.469 0-2.095-.994-3.489-2.553-3.489s-2.563 1.394-2.563 3.489c0 2.086.994 3.469 2.544 3.469zm.019-.691c-1.121 0-1.813-1.092-1.813-2.807 0-1.676.683-2.768 1.784-2.768 1.13 0 1.832 1.111 1.832 2.807 0 1.676-.692 2.768-1.803 2.768zm3.975-2.281h3.411v-.565h-3.411v.565z" fill="#F85C94"/><path d="M352.348 259.827c1.628 0 2.719-1.452 2.719-3.489s-1.082-3.498-2.699-3.498c-1.628 0-2.709 1.461-2.709 3.518 0 2.027 1.072 3.469 2.689 3.469zm.03-.926c-1.014 0-1.638-1.052-1.638-2.612 0-1.51.595-2.514 1.599-2.514 1.013 0 1.656 1.082 1.656 2.602 0 1.481-.623 2.524-1.617 2.524zm6.118.926c1.628 0 2.719-1.452 2.719-3.489s-1.082-3.498-2.699-3.498c-1.628 0-2.71 1.461-2.71 3.518 0 2.027 1.072 3.469 2.69 3.469zm.029-.926c-1.013 0-1.637-1.052-1.637-2.612 0-1.51.595-2.514 1.598-2.514 1.014 0 1.657 1.082 1.657 2.602 0 1.481-.624 2.524-1.618 2.524zm3.39.848h4.668v-.994h-3.177l1.014-.897c1.13-1.003 2.115-1.705 2.115-2.913 0-1.209-.965-2.105-2.271-2.105-1.394 0-2.368.896-2.427 2.231h1.121c.088-.75.594-1.237 1.296-1.237.721 0 1.199.458 1.199 1.159 0 .799-.751 1.316-1.988 2.378l-1.55 1.335v1.043z" fill="#fff"/></g><path d="M435.691 213.044l1.603 3.477 3.803.451-2.811 2.6.746 3.756-3.341-1.871-3.342 1.871.746-3.756-2.811-2.6 3.803-.451 1.604-3.477z" fill="#fff"/><path d="M435.691 228.635l1.603 3.477 3.803.451-2.811 2.6.746 3.755-3.341-1.87-3.342 1.87.746-3.755-2.811-2.6 3.803-.451 1.604-3.477zm-.001 15.59l1.603 3.477 3.803.451-2.811 2.599.746 3.756-3.341-1.87-3.342 1.87.746-3.756-2.811-2.599 3.803-.451 1.604-3.477z" fill="#000"/><path opacity=".95" d="M316.345 224.323c2.251 0 3.907-1.284 4.501-2.899l-1.049-.276c-.484 1.215-1.74 2.14-3.466 2.14-2.347 0-3.893-1.837-3.893-4.018 0-2.126 1.546-3.934 3.893-3.934 1.726 0 2.996.938 3.466 2.139l1.076-.262c-.579-1.615-2.264-2.913-4.542-2.913-2.844 0-4.997 2.168-4.997 4.984 0 2.858 2.153 5.039 5.011 5.039zm13.369-8.836v-1.007h-6.806v9.664h6.793v-1.008h-5.702v-3.424h5.011v-.966h-5.011v-3.259h5.715zm8.657 8.657h1.27l-2.595-3.852c1.574-.29 2.416-1.574 2.416-2.872 0-1.408-1.077-2.94-3.065-2.94h-4.473v9.664h1.091v-3.797h2.83l2.526 3.797zm-5.356-8.67h3.354c1.257 0 2.03.938 2.03 1.946 0 1.022-.759 1.947-2.043 1.947h-3.341v-3.893zm16.066-.994h-8.242v1.007h3.576v8.657h1.105v-8.657h3.561v-1.007zm1.656 9.664h1.105v-9.664h-1.105v9.664zm10.292-8.657v-1.007h-6.696v9.664h1.105v-4.294h4.887v-.98h-4.887v-3.383h5.591zm1.713 8.657h1.105v-9.664h-1.105v9.664zm10.403-8.657v-1.007h-6.807v9.664h6.793v-1.008h-5.702v-3.424h5.012v-.966h-5.012v-3.259h5.716zm5.881-1.007h-3.672v9.664h3.672c2.996 0 4.75-2.057 4.75-4.832s-1.754-4.832-4.75-4.832zm-.013 8.656h-2.568v-7.662h2.568c2.36 0 3.658 1.684 3.658 3.81 0 2.195-1.298 3.852-3.658 3.852zm-60.307 19.008h1.974l-3.714-9.664h-2.457l-3.7 9.664h1.961l.8-2.099h4.349l.787 2.099zm-4.514-3.769l1.546-4.087 1.546 4.087h-3.092zm11.421 3.962c2.319 0 3.866-1.339 3.866-2.996 0-1.574-1.119-2.195-2.596-2.651l-2.402-.773c-.635-.193-.925-.483-.925-.911 0-.566.608-1.049 1.56-1.049 1.091 0 1.988.538 2.388 1.325l1.754-.511c-.525-1.339-2.071-2.485-4.156-2.485-2.015 0-3.479 1.27-3.465 2.775-.014 1.243.911 2.057 2.181 2.458l2.472.773c.925.303 1.27.649 1.27 1.159 0 .636-.704 1.215-1.836 1.215-1.395 0-2.375-.8-2.762-1.808l-1.808.552c.538 1.505 2.098 2.927 4.459 2.927zm9.461 0c2.319 0 3.865-1.339 3.865-2.996 0-1.574-1.118-2.195-2.595-2.651l-2.402-.773c-.635-.193-.925-.483-.925-.911 0-.566.607-1.049 1.56-1.049 1.09 0 1.988.538 2.388 1.325l1.753-.511c-.524-1.339-2.07-2.485-4.155-2.485-2.016 0-3.479 1.27-3.465 2.775-.014 1.243.911 2.057 2.181 2.458l2.471.773c.925.303 1.27.649 1.27 1.159 0 .636-.704 1.215-1.836 1.215-1.394 0-2.374-.8-2.761-1.808l-1.808.552c.538 1.505 2.098 2.927 4.459 2.927zm10.179 0c2.913 0 5.066-2.181 5.066-5.039 0-2.844-2.153-5.012-5.066-5.012-2.927 0-5.081 2.168-5.081 5.012 0 2.858 2.154 5.039 5.081 5.039zm0-1.753c-1.919 0-3.162-1.436-3.162-3.286 0-1.809 1.243-3.258 3.162-3.258 1.905 0 3.161 1.449 3.161 3.258 0 1.85-1.256 3.286-3.161 3.286zm11.55 1.753c2.554 0 4.183-1.56 4.625-3.106l-1.836-.47c-.318.953-1.353 1.795-2.817 1.795-1.905 0-3.12-1.533-3.12-3.272 0-1.74 1.215-3.217 3.12-3.217 1.464 0 2.499.87 2.817 1.809l1.85-.456c-.442-1.532-2.071-3.134-4.68-3.134-2.872 0-5.039 2.168-5.039 5.012 0 2.858 2.167 5.039 5.08 5.039zm6.371-.193h1.919v-9.664h-1.919v9.664zm11.177 0h1.974l-3.714-9.664h-2.457l-3.7 9.664h1.96l.801-2.099h4.349l.787 2.099zm-4.515-3.769l1.547-4.087 1.546 4.087h-3.093zm14.354-5.895h-8.38v1.711h3.245v7.953h1.891v-7.953h3.244v-1.711zm8.639 1.711v-1.711h-7.124v9.664h7.11v-1.712h-5.26v-2.375h4.57V236.4h-4.57v-2.209h5.274z" fill="#fff"/><path fill-rule="evenodd" clip-rule="evenodd" d="M451.932 162.043v32.983H291.137v-32.983c0-3.784 0-5.676.618-7.168a8.118 8.118 0 014.395-4.395c1.492-.619 3.384-.619 7.168-.619h136.433c3.784 0 5.675 0 7.168.619a8.118 8.118 0 014.395 4.395c.618 1.492.618 3.384.618 7.168zm-83.123 187.544l.167.048a9.758 9.758 0 005.284-.048h-5.451z" fill="#E03875"/><g clip-path="url(#clip4_685_40288)" fill="#fff"><path d="M340.62 171.472c0-2.52 1.468-3.988 4.896-3.988a15.688 15.688 0 013.756.454l-.29 2.254a20.135 20.135 0 00-3.367-.342c-1.799 0-2.39.618-2.39 2.086v5.279c0 1.465.577 2.086 2.39 2.086a20.134 20.134 0 003.367-.341l.29 2.254c-1.229.302-2.49.454-3.756.454-3.414 0-4.896-1.469-4.896-3.988v-6.208zm14.214 10.185c-3.452 0-4.377-1.905-4.377-3.954v-2.554c0-2.048.929-3.967 4.381-3.967s4.377 1.902 4.377 3.967v2.554c-.003 2.049-.932 3.954-4.381 3.954zm0-8.328c-1.345 0-1.86.601-1.86 1.738v2.705c0 1.137.515 1.734 1.86 1.734 1.346 0 1.858-.597 1.858-1.734v-2.705c0-1.12-.516-1.738-1.858-1.738zm12.043 8.13v-7.034c0-.536-.229-.805-.806-.805-.577 0-1.707.372-2.625.846v6.993h-2.52V171.39h1.922l.243.85a10.058 10.058 0 014.029-1.055c1.673 0 2.274 1.178 2.274 2.974v7.3h-2.517zm7.703.198a11.825 11.825 0 01-3.469-.58l.342-1.919c.974.278 1.981.424 2.994.434 1.117 0 1.281-.25 1.281-1.025 0-.618-.123-.928-1.755-1.321-2.459-.598-2.749-1.219-2.749-3.162 0-2.025.888-2.913 3.756-2.913a13.184 13.184 0 013.015.342l-.222 2.025a17.875 17.875 0 00-2.769-.291c-1.096 0-1.281.25-1.281.868 0 .806.062.867 1.428 1.219 2.806.744 3.073 1.116 3.073 3.182-.007 1.943-.605 3.141-3.644 3.141zm7.809-10.267v7.023c0 .536.225.806.806.806.58 0 1.707-.372 2.622-.847v-6.982h2.52v10.069h-1.919l-.249-.847a10.046 10.046 0 01-4.029 1.055c-1.673 0-2.271-1.178-2.271-2.977v-7.3h2.52zm8.116 10.069v-14.18l2.52-.341v14.521h-2.52zm-68.901 3.958a10.847 10.847 0 01-10.78-9.612 10.854 10.854 0 013.68-9.435 10.858 10.858 0 019.867-2.282 10.863 10.863 0 014.575 2.508l-2.565 2.691a7.121 7.121 0 00-10.747 1.41 7.125 7.125 0 0010.747 9.175l2.565 2.68a10.81 10.81 0 01-7.342 2.865zm8.728-5.426a.893.893 0 01-.871-1.061.886.886 0 011.21-.647.893.893 0 01.548.821.884.884 0 01-.887.887z"/><path d="M321.536 176.922a2.35 2.35 0 01-.458-4.654 2.352 2.352 0 012.807 2.304 2.347 2.347 0 01-2.349 2.35zm9.817.034a.886.886 0 01-.871-1.061.889.889 0 011.758.173.89.89 0 01-.887.888zm-2.643-.103a.89.89 0 01-.871-1.061.893.893 0 01.698-.697.883.883 0 01.911.377.885.885 0 01-.11 1.121.888.888 0 01-.628.26zm2.643-2.885a.886.886 0 01-.871-1.061.893.893 0 01.697-.698.891.891 0 011.061.871.889.889 0 01-.887.888zm-2.643.102a.89.89 0 01-.871-1.061.893.893 0 01.698-.697.892.892 0 01.911.377.886.886 0 01-.738 1.381zm1.673-3.089a.883.883 0 01-.82-.548.893.893 0 01.192-.968.885.885 0 01.968-.192.889.889 0 01-.34 1.708z"/></g><g opacity=".95" fill="#fff"><path d="M369.68 306.991l-9.289 5.358v12.873l3.489 2.014v-12.872l5.8-3.348v-4.025z"/><path d="M373.389 306.991v10.251h-3.709v-3.825l-3.491 2.014v13.134l3.491 2.019v-10.222h3.709v3.8l3.489-2.015v-13.142l-3.489-2.014z"/><path d="M373.389 330.588l9.289-5.358v-12.873l-3.491-2.015v12.873l-5.798 3.348v4.025z"/></g></g><defs><linearGradient id="paint0_linear_685_40288" x1="405.059" y1="252.001" x2="443.619" y2="456.579" gradientUnits="userSpaceOnUse"><stop stop-color="#922479"/><stop offset="1" stop-color="#96267A" stop-opacity="0"/></linearGradient><linearGradient id="paint1_linear_685_40288" x1="362.863" y1="278.674" x2="294.162" y2="427.712" gradientUnits="userSpaceOnUse"><stop stop-color="#E771A4"/><stop offset="1" stop-color="#F81696" stop-opacity=".01"/></linearGradient><linearGradient id="paint2_linear_685_40288" x1="280.895" y1="127.818" x2="313.429" y2="335.535" gradientUnits="userSpaceOnUse"><stop stop-color="#532A7D"/><stop offset="1" stop-color="#33197C" stop-opacity="0"/></linearGradient><linearGradient id="paint3_linear_685_40288" x1="229.884" y1="154.613" x2="169.245" y2="312.917" gradientUnits="userSpaceOnUse"><stop stop-color="#76A0F3"/><stop offset="1" stop-color="#522AC2" stop-opacity="0"/></linearGradient><linearGradient id="paint4_linear_685_40288" x1="119.778" y1="222.8" x2="133.785" y2="462.748" gradientUnits="userSpaceOnUse"><stop stop-color="#9B7003"/><stop offset="1" stop-color="#DF706F" stop-opacity="0"/></linearGradient><linearGradient id="paint5_linear_685_40288" x1="77" y1="240.786" x2="13.894" y2="449.008" gradientUnits="userSpaceOnUse"><stop offset=".19" stop-color="#FECA13" stop-opacity=".76"/><stop offset="1" stop-color="#E36666" stop-opacity="0"/></linearGradient><clipPath id="clip0_685_40288"><path fill="#fff" transform="translate(174.801 24.26)" d="M0 0h110.918v31.185H0z"/></clipPath><clipPath id="clip1_685_40288"><path fill="#fff" transform="translate(6 107.858)" d="M0 0h161.563v198.281H0z"/></clipPath><clipPath id="clip2_685_40288"><path fill="#fff" transform="translate(20.617 117.604)" d="M0 0h72.941v30.86H0z"/></clipPath><clipPath id="clip3_685_40288"><path fill="#fff" transform="translate(291.137 149.86)" d="M0 0h161.563v198.281H0z"/></clipPath><clipPath id="clip4_685_40288"><path fill="#fff" transform="translate(310.754 159.606)" d="M0 0h82.29v30.048H0z"/></clipPath><filter id="filter0_d_685_40288" x=".8" y="107.858" width="171.962" height="210.414" filterUnits="userSpaceOnUse" color-interpolation-filters="sRGB"><feFlood flood-opacity="0" result="BackgroundImageFix"/><feColorMatrix in="SourceAlpha" values="0 0 0 0 0 0 0 0 0 0 0 0 0 0 0 0 0 0 127 0" result="hardAlpha"/><feMorphology radius="8.666" in="SourceAlpha" result="effect1_dropShadow_685_40288"/><feOffset dy="6.933"/><feGaussianBlur stdDeviation="6.933"/><feColorMatrix values="0 0 0 0 0.170885 0 0 0 0 0.183125 0 0 0 0 0.2125 0 0 0 0.2 0"/><feBlend in2="BackgroundImageFix" result="effect1_dropShadow_685_40288"/><feBlend in="SourceGraphic" in2="effect1_dropShadow_685_40288" result="shape"/></filter></defs></svg>