<svg width="498" height="528" viewBox="0 0 498 528" fill="none" xmlns="http://www.w3.org/2000/svg"><path d="M391.938 338.258L472.059 292v186.386l-80.121 46.258V338.258z" fill="url(#paint0_linear_63_12798)" fill-opacity=".6"/><path d="M391.939 338.258L311.819 292v189.742L391.939 528V338.258z" fill="url(#paint1_linear_63_12798)" fill-opacity=".6"/><path d="M260.855 223.92L357.712 168v225.318l-96.857 55.92V223.92z" fill="url(#paint2_linear_63_12798)" fill-opacity=".6"/><path d="M260.856 223.92L164 168v229.376l96.856 55.92V223.92z" fill="url(#paint3_linear_63_12798)" fill-opacity=".6"/><path d="M336.8 176.51h0l-.084.049-70.081 40.456c-2.669 1.54-3.53 2.009-4.374 2.235a7.351 7.351 0 01-3.811 0c-.845-.226-1.706-.695-4.374-2.235L183.91 176.51c-2.669-1.541-3.505-2.052-4.124-2.67a7.37 7.37 0 01-1.906-3.301c-.226-.845-.251-1.825-.251-4.907V25.772c0-2.06.002-3.452.076-4.533.072-1.054.202-1.588.353-1.953a5.634 5.634 0 013.047-3.047c.365-.151.899-.281 1.953-.353 1.081-.074 2.474-.076 4.533-.076h145.528c2.06 0 3.453.002 4.533.076 1.054.072 1.588.202 1.953.353a5.628 5.628 0 013.047 3.047c.151.365.282.9.353 1.953.074 1.08.076 2.474.076 4.533v139.86c0 3.082-.025 4.062-.251 4.907a7.37 7.37 0 01-1.906 3.301c-.618.618-1.455 1.129-4.124 2.67z" fill="#000" stroke="#000" stroke-width="6.064"/><path d="M236.974 130.631c1.736 0 2.901-1.549 2.901-3.721 0-2.173-1.154-3.732-2.88-3.732-1.736 0-2.89 1.559-2.89 3.752 0 2.163 1.144 3.701 2.869 3.701zm.032-.987c-1.081 0-1.747-1.123-1.747-2.786 0-1.612.634-2.682 1.705-2.682 1.081 0 1.767 1.154 1.767 2.775 0 1.58-.665 2.693-1.725 2.693zm6.526.987c1.736 0 2.9-1.549 2.9-3.721 0-2.173-1.154-3.732-2.879-3.732-1.736 0-2.89 1.559-2.89 3.752 0 2.163 1.144 3.701 2.869 3.701zm.031-.987c-1.081 0-1.746-1.123-1.746-2.786 0-1.612.634-2.682 1.705-2.682 1.081 0 1.767 1.154 1.767 2.775 0 1.58-.665 2.693-1.726 2.693zm3.616.904h4.979v-1.06h-3.388l1.081-.957c1.206-1.07 2.255-1.819 2.255-3.108 0-1.289-1.029-2.245-2.422-2.245-1.486 0-2.526.956-2.588 2.38h1.196c.093-.8.634-1.32 1.382-1.32.769 0 1.279.489 1.279 1.237 0 .853-.801 1.403-2.121 2.537l-1.653 1.424v1.112z" opacity=".94" fill="#fff"/><path d="M195.705 130.548h.842v-3.347h3.794v3.347h.842v-7.277h-.842v3.202h-3.794v-3.202h-.842v7.277zm10.22.062c1.684 0 2.838-1.081 3.077-2.474h-.873c-.198.894-1.04 1.663-2.194 1.663-1.424 0-2.411-1.174-2.411-2.837 0-1.726.998-2.963 2.453-2.963 1.123 0 1.944.759 2.152 1.663h.873c-.218-1.393-1.372-2.453-3.015-2.453-1.954 0-3.357 1.528-3.357 3.742 0 2.152 1.414 3.659 3.295 3.659zm5.984-.062h.8v-6.518h2.599v-.759H209.3v.759h2.609v6.518zm3.832 0l.728-1.965h3.129l.748 1.965h.915l-2.796-7.277h-.863l-2.775 7.266.914.011zm.988-2.744l1.31-3.587 1.309 3.587h-2.619zm8.114 2.848c1.674 0 2.745-1.476 2.745-3.701 0-2.235-1.061-3.721-2.724-3.721-1.663 0-2.734 1.486-2.734 3.721 0 2.225 1.061 3.701 2.713 3.701zm.021-.738c-1.195 0-1.933-1.164-1.933-2.994 0-1.788.727-2.952 1.902-2.952 1.206 0 1.954 1.185 1.954 2.994 0 1.788-.738 2.952-1.923 2.952zm4.24-2.433h3.639v-.603h-3.639v.603z" opacity=".94" fill="#AC72F0"/><path d="M328.4 80.395l1.71 3.71 4.056.48-2.998 2.774.796 4.006-3.564-1.995-3.565 1.995.796-4.006-2.998-2.774 4.056-.48 1.711-3.71z" fill="#fff"/><path d="M200.765 92.427c2.401 0 4.168-1.37 4.801-3.093l-1.119-.294c-.515 1.296-1.855 2.282-3.696 2.282-2.504 0-4.153-1.958-4.153-4.285 0-2.268 1.649-4.197 4.153-4.197 1.841 0 3.195 1.001 3.696 2.283l1.149-.28c-.619-1.723-2.415-3.107-4.845-3.107-3.034 0-5.331 2.312-5.331 5.316 0 3.048 2.297 5.375 5.345 5.375zm14.261-9.425v-1.075h-7.26v10.308h7.245V91.16h-6.082v-3.652h5.346v-1.03h-5.346v-3.476h6.097zm9.234 9.233h1.355l-2.769-4.108c1.679-.31 2.577-1.679 2.577-3.063 0-1.502-1.148-3.137-3.269-3.137h-4.771v10.308h1.163v-4.05h3.019l2.695 4.05zm-5.714-9.248h3.579c1.34 0 2.164 1.002 2.164 2.077 0 1.09-.81 2.076-2.179 2.076h-3.564v-4.153zm17.138-1.06h-8.791v1.075h3.814v9.233h1.178v-9.233h3.799v-1.075zm1.767 10.308h1.178V81.927h-1.178v10.308zm10.977-9.233v-1.075h-7.142v10.308h1.178v-4.58h5.213V86.61h-5.213v-3.608h5.964zm1.828 9.233h1.178V81.927h-1.178v10.308zm11.096-9.233v-1.075h-7.26v10.308h7.245V91.16h-6.082v-3.652h5.346v-1.03h-5.346v-3.476h6.097zm6.274-1.075h-3.918v10.308h3.918c3.195 0 5.065-2.194 5.065-5.154s-1.87-5.154-5.065-5.154zm-.015 9.233h-2.739v-8.173h2.739c2.518 0 3.902 1.797 3.902 4.065 0 2.341-1.384 4.108-3.902 4.108zm-64.327 21.075h2.105l-3.961-10.308h-2.621l-3.947 10.308h2.091l.855-2.238h4.638l.84 2.238zm-4.816-4.02l1.65-4.359 1.649 4.359h-3.299zm12.183 4.227c2.474 0 4.124-1.429 4.124-3.196 0-1.679-1.193-2.341-2.769-2.827l-2.562-.825c-.678-.206-.987-.515-.987-.972 0-.604.648-1.119 1.664-1.119 1.163 0 2.121.574 2.548 1.414l1.87-.545c-.56-1.429-2.209-2.651-4.433-2.651-2.15 0-3.711 1.355-3.696 2.96-.015 1.325.972 2.194 2.327 2.621l2.636.825c.986.324 1.355.692 1.355 1.237 0 .677-.751 1.296-1.959 1.296-1.487 0-2.533-.854-2.945-1.929l-1.929.589c.574 1.605 2.238 3.122 4.756 3.122zm10.092 0c2.474 0 4.123-1.429 4.123-3.196 0-1.679-1.193-2.341-2.769-2.827l-2.562-.825c-.677-.206-.987-.515-.987-.972 0-.604.648-1.119 1.664-1.119 1.164 0 2.121.574 2.548 1.414l1.87-.545c-.559-1.429-2.209-2.651-4.432-2.651-2.15 0-3.711 1.355-3.696 2.96-.015 1.325.971 2.194 2.326 2.621l2.636.825c.987.324 1.355.692 1.355 1.237 0 .677-.751 1.296-1.959 1.296-1.487 0-2.532-.854-2.945-1.929l-1.929.589c.574 1.605 2.238 3.122 4.757 3.122zm10.857 0c3.107 0 5.405-2.327 5.405-5.375 0-3.034-2.298-5.346-5.405-5.346-3.122 0-5.419 2.312-5.419 5.346 0 3.048 2.297 5.375 5.419 5.375zm0-1.871c-2.047 0-3.372-1.531-3.372-3.504 0-1.93 1.325-3.476 3.372-3.476 2.032 0 3.372 1.546 3.372 3.476 0 1.973-1.34 3.504-3.372 3.504zm12.321 1.871c2.724 0 4.461-1.664 4.933-3.314l-1.959-.5c-.339 1.016-1.443 1.914-3.004 1.914-2.032 0-3.328-1.635-3.328-3.49 0-1.856 1.296-3.431 3.328-3.431 1.561 0 2.665.927 3.004 1.929l1.973-.486c-.471-1.635-2.208-3.343-4.992-3.343-3.063 0-5.375 2.312-5.375 5.346 0 3.048 2.312 5.375 5.42 5.375zm6.796-.207h2.047v-10.308h-2.047v10.308zm11.921 0h2.106l-3.961-10.308h-2.621l-3.947 10.308h2.091l.854-2.238h4.639l.839 2.238zm-4.815-4.02l1.649-4.359 1.649 4.359h-3.298zm15.311-6.288h-8.939v1.826h3.461v8.482h2.017v-8.482h3.461v-1.826zm9.214 1.826v-1.826h-7.599v10.308h7.584v-1.826h-5.61v-2.533h4.874v-1.767h-4.874v-2.356h5.625z" opacity=".95" fill="#fff"/><path fill-rule="evenodd" clip-rule="evenodd" d="M345.285 60V25.994c0-4.037 0-6.055-.66-7.647a8.66 8.66 0 00-4.688-4.688c-1.592-.659-3.61-.659-7.646-.659H186.763c-4.036 0-6.054 0-7.646.66a8.66 8.66 0 00-4.688 4.687c-.659 1.592-.659 3.61-.659 7.647V60h171.515z" fill="#7B42BC"/><g clip-path="url(#clip0_63_12798)" fill="#fff"><path d="M229.692 35.055h-3.987v-2.381h10.674v2.381h-3.987v11.907h-2.7V35.055z"/><path d="M239.199 45.023a10.907 10.907 0 003.19-.492l.407 1.97a11.212 11.212 0 01-3.848.666c-3.278 0-4.416-1.523-4.416-4.032V40.37c0-2.208.985-4.072 4.331-4.072 3.345 0 4.096 1.949 4.096 4.2v2.232h-5.783v.535c0 1.265.436 1.757 2.023 1.757zm-2.023-4.394h3.324v-.517c0-.985-.301-1.67-1.588-1.67-1.286 0-1.736.685-1.736 1.67v.517zm12.786-1.931c-.961.434-1.887.944-2.768 1.524v6.74h-2.615v-10.45h2.208l.173 1.158a11.592 11.592 0 012.743-1.371l.259 2.399zm6.386 0a20.21 20.21 0 00-2.764 1.524v6.74h-2.615v-10.45h2.207l.171 1.158a11.593 11.593 0 012.746-1.371l.255 2.399zm8.746 8.264h-2.144l-.191-.709c-.926.6-2.005.92-3.108.921-1.91 0-2.725-1.307-2.725-3.107 0-2.127.925-2.938 3.044-2.938h2.509v-1.102c0-1.155-.319-1.563-1.992-1.563-.973.01-1.943.117-2.895.319l-.322-1.992a13.573 13.573 0 013.579-.492c3.281 0 4.252 1.155 4.252 3.77l-.007 6.893zm-2.615-3.955h-1.914c-.857 0-1.095.238-1.095 1.031 0 .709.238 1.063 1.063 1.063a4.143 4.143 0 001.971-.535l-.025-1.559zm10.656-8.873a7.5 7.5 0 00-1.503-.174c-1.028 0-1.176.45-1.176 1.244v1.307h2.657l-.145 2.08h-2.505v8.37h-2.616v-8.37h-1.672v-2.08h1.672v-1.456c0-2.165 1.007-3.239 3.321-3.239a8.327 8.327 0 012.25.301l-.283 2.017zm5.099 13.033c-3.579 0-4.557-1.977-4.557-4.103v-2.65c0-2.127.964-4.115 4.543-4.115s4.546 1.97 4.546 4.114v2.65c.015 2.127-.939 4.104-4.532 4.104zm0-8.64c-1.393 0-1.928.621-1.928 1.801v2.807c0 1.18.535 1.803 1.928 1.803 1.393 0 1.931-.623 1.931-1.803v-2.807c0-1.162-.535-1.8-1.931-1.8zm11.276.171a20.27 20.27 0 00-2.764 1.524v6.74h-2.615v-10.45h2.208l.17 1.158a11.657 11.657 0 012.76-1.371l.241 2.399zm7.2 8.264v-7.3c0-.557-.238-.837-.836-.837-.599 0-1.772.387-2.722.883v7.254h-2.619v-10.45h1.995l.259.878a10.487 10.487 0 014.178-1.091c1.01 0 1.63.407 1.974 1.113a10.273 10.273 0 014.203-1.113c1.736 0 2.356 1.219 2.356 3.086v7.577h-2.615v-7.3c0-.557-.237-.837-.836-.837-.959.1-1.887.401-2.722.883v7.254h-2.615z"/><path fill-rule="evenodd" clip-rule="evenodd" d="M202.313 30.126l6.769 3.908v7.818l-6.769-3.909v-7.817zm7.51 3.908v7.818l6.772-3.909v-7.817l-6.772 3.908zm-15.022-8.271v7.818l6.768 3.908v-7.817l-6.768-3.909zm7.512 20.855l6.769 3.909v-7.818l-6.769-3.908v7.817z"/></g><g opacity=".95" fill="#fff"><path d="M257.989 180.606l-9.909 5.715v13.731l3.722 2.149V188.47l6.187-3.571v-4.293z"/><path d="M261.944 180.606v10.934h-3.955v-4.08l-3.724 2.149v14.009l3.724 2.154v-10.904h3.955v4.054l3.722-2.149v-14.018l-3.722-2.149z"/><path d="M261.944 205.776l9.909-5.715V186.33l-3.724-2.149v13.731l-6.185 3.571v4.293z"/></g><path d="M106.5 292.147L187 258v187.591l-80.5 34.148V292.147z" fill="url(#paint4_linear_63_12798)" fill-opacity=".6"/><path d="M106.5 292.147L26 258v200.069l80.5 34.148v-200.07z" fill="url(#paint5_linear_63_12798)" fill-opacity=".6"/><path d="M184.381 119.895v131.119c0 2.889-.023 3.808-.235 4.6l2.745.735-2.745-.735a6.907 6.907 0 01-1.787 3.094c-.58.58-1.364 1.059-3.867 2.504l-65.779 37.973c-2.502 1.444-3.309 1.883-4.101 2.095a6.894 6.894 0 01-3.573 0c-.792-.212-1.599-.651-4.101-2.095l-65.78-37.973c-2.502-1.445-3.286-1.924-3.866-2.504a6.905 6.905 0 01-1.787-3.094l-2.745.735 2.745-.735c-.212-.792-.235-1.711-.235-4.6V119.895c0-1.931.002-3.237.07-4.25.068-.988.19-1.489.332-1.831a5.281 5.281 0 012.857-2.857c.342-.141.842-.263 1.83-.331 1.014-.069 2.32-.07 4.25-.07h136.433c1.93 0 3.236.001 4.25.07.987.068 1.488.19 1.83.331a5.28 5.28 0 012.857 2.857c.142.342.264.843.331 1.831.069 1.013.071 2.319.071 4.25z" fill="#000" stroke="#000" stroke-width="5.685"/><path d="M81.192 217.825c1.628 0 2.719-1.452 2.719-3.489s-1.082-3.498-2.7-3.498c-1.627 0-2.709 1.461-2.709 3.518 0 2.027 1.072 3.469 2.69 3.469zm.03-.926c-1.014 0-1.638-1.052-1.638-2.612 0-1.51.595-2.514 1.598-2.514 1.014 0 1.657 1.082 1.657 2.602 0 1.481-.624 2.524-1.618 2.524zm6.118.926c1.627 0 2.719-1.452 2.719-3.489s-1.082-3.498-2.7-3.498c-1.627 0-2.709 1.461-2.709 3.518 0 2.027 1.072 3.469 2.69 3.469zm.03-.926c-1.014 0-1.638-1.052-1.638-2.612 0-1.51.594-2.514 1.598-2.514 1.014 0 1.657 1.082 1.657 2.602 0 1.481-.624 2.524-1.618 2.524zm3.39.848h4.667v-.994H92.25l1.014-.897c1.13-1.003 2.114-1.705 2.114-2.913 0-1.209-.964-2.105-2.27-2.105-1.394 0-2.368.896-2.427 2.231h1.12c.089-.75.595-1.237 1.297-1.237.721 0 1.199.458 1.199 1.159 0 .799-.75 1.316-1.988 2.378l-1.55 1.335v1.043z" opacity=".94" fill="#fff"/><path d="M41.465 217.747h.79v-3.138h3.556v3.138h.79v-6.822h-.79v3.002h-3.557v-3.002h-.79v6.822zm9.581.058c1.579 0 2.66-1.013 2.885-2.319h-.819c-.185.838-.974 1.559-2.056 1.559-1.335 0-2.261-1.101-2.261-2.66 0-1.618.935-2.777 2.3-2.777 1.052 0 1.822.711 2.017 1.559h.819c-.205-1.306-1.287-2.3-2.826-2.3-1.833 0-3.148 1.432-3.148 3.508 0 2.017 1.325 3.43 3.089 3.43zm6.051-.058h.887l2.494-6.822h-.78l-2.143 5.945-2.183-5.945h-.77l2.495 6.822zm4.189 0l.682-1.842h2.934l.701 1.842h.858l-2.621-6.822h-.81l-2.601 6.812.857.01zm.926-2.573l1.228-3.362 1.228 3.362h-2.456zm7.608 2.67c1.568 0 2.572-1.383 2.572-3.469 0-2.095-.994-3.489-2.553-3.489-1.56 0-2.563 1.394-2.563 3.489 0 2.086.994 3.469 2.543 3.469zm.019-.691c-1.12 0-1.813-1.092-1.813-2.807 0-1.676.682-2.768 1.784-2.768 1.13 0 1.832 1.111 1.832 2.807 0 1.676-.692 2.768-1.803 2.768zm3.975-2.281h3.41v-.565h-3.41v.565z" opacity=".94" fill="#FFE959"/><path d="M170.553 171.042l1.604 3.477 3.802.451-2.811 2.6.746 3.756-3.341-1.871-3.342 1.871.747-3.756-2.812-2.6 3.803-.451 1.604-3.477z" fill="#fff"/><path d="M46.21 182.321c2.25 0 3.906-1.284 4.5-2.899l-1.05-.276c-.482 1.215-1.739 2.14-3.464 2.14-2.347 0-3.894-1.837-3.894-4.018 0-2.126 1.547-3.935 3.894-3.935 1.725 0 2.995.939 3.465 2.14l1.077-.262c-.58-1.615-2.264-2.913-4.542-2.913-2.844 0-4.998 2.168-4.998 4.984 0 2.858 2.154 5.039 5.011 5.039zm13.369-8.836v-1.007h-6.806v9.664h6.792v-1.008h-5.702v-3.424h5.012v-.967h-5.012v-3.258h5.716zm8.657 8.657h1.27l-2.596-3.852c1.574-.29 2.416-1.574 2.416-2.872 0-1.408-1.077-2.94-3.065-2.94h-4.473v9.664h1.09v-3.797h2.831l2.526 3.797zm-5.357-8.67h3.355c1.256 0 2.03.938 2.03 1.946 0 1.022-.76 1.947-2.044 1.947h-3.341v-3.893zm16.067-.994h-8.242v1.007h3.575v8.657h1.105v-8.657h3.562v-1.007zm1.656 9.664h1.104v-9.664h-1.104v9.664zm10.291-8.657v-1.007h-6.695v9.664h1.104v-4.294h4.887v-.98h-4.887v-3.383h5.591zm1.714 8.657h1.104v-9.664h-1.104v9.664zm10.402-8.657v-1.007h-6.806v9.664h6.792v-1.008h-5.702v-3.424h5.012v-.967h-5.012v-3.258h5.716zm5.882-1.007h-3.673v9.664h3.673c2.996 0 4.749-2.058 4.749-4.832 0-2.775-1.753-4.832-4.749-4.832zm-.014 8.656h-2.568v-7.662h2.568c2.361 0 3.658 1.684 3.658 3.81 0 2.195-1.297 3.852-3.658 3.852zM48.57 200.142h1.974l-3.713-9.664h-2.458l-3.7 9.664h1.96l.801-2.099h4.35l.786 2.099zm-4.514-3.769l1.546-4.087 1.546 4.087h-3.092zm11.421 3.962c2.32 0 3.866-1.339 3.866-2.996 0-1.574-1.118-2.195-2.596-2.651l-2.402-.773c-.635-.193-.925-.483-.925-.911 0-.566.608-1.049 1.56-1.049 1.091 0 1.988.538 2.389 1.325l1.753-.511c-.525-1.339-2.07-2.485-4.155-2.485-2.016 0-3.48 1.27-3.466 2.775-.014 1.243.912 2.057 2.182 2.458l2.47.773c.926.303 1.27.649 1.27 1.159 0 .635-.703 1.215-1.835 1.215-1.395 0-2.375-.8-2.761-1.808l-1.809.552c.538 1.505 2.099 2.927 4.46 2.927zm9.461 0c2.32 0 3.866-1.339 3.866-2.996 0-1.574-1.119-2.195-2.596-2.651l-2.402-.773c-.635-.193-.925-.483-.925-.911 0-.566.607-1.049 1.56-1.049 1.09 0 1.988.538 2.388 1.325l1.754-.511c-.525-1.339-2.071-2.485-4.156-2.485-2.016 0-3.479 1.27-3.465 2.775-.014 1.243.911 2.057 2.181 2.458l2.472.773c.924.303 1.27.649 1.27 1.159 0 .635-.705 1.215-1.837 1.215-1.394 0-2.374-.8-2.76-1.808l-1.81.552c.54 1.505 2.1 2.927 4.46 2.927zm10.179 0c2.913 0 5.066-2.182 5.066-5.039 0-2.844-2.153-5.012-5.066-5.012-2.927 0-5.08 2.168-5.08 5.012 0 2.857 2.153 5.039 5.08 5.039zm0-1.754c-1.92 0-3.162-1.435-3.162-3.285 0-1.809 1.243-3.258 3.162-3.258 1.905 0 3.161 1.449 3.161 3.258 0 1.85-1.256 3.285-3.161 3.285zm11.55 1.754c2.554 0 4.183-1.56 4.625-3.106l-1.836-.47c-.318.953-1.353 1.795-2.816 1.795-1.906 0-3.12-1.533-3.12-3.272 0-1.74 1.214-3.217 3.12-3.217 1.463 0 2.498.87 2.816 1.809l1.85-.456c-.442-1.532-2.07-3.134-4.68-3.134-2.872 0-5.04 2.168-5.04 5.012 0 2.857 2.168 5.039 5.081 5.039zm6.372-.193h1.919v-9.664h-1.92v9.664zm11.176 0h1.974l-3.713-9.664h-2.458l-3.7 9.664h1.96l.801-2.099h4.349l.787 2.099zm-4.514-3.769l1.546-4.087 1.546 4.087h-3.092zm14.354-5.895h-8.38v1.711h3.244v7.953h1.891v-7.953h3.245v-1.711zm8.638 1.711v-1.711h-7.124v9.664h7.11v-1.712h-5.26v-2.375h4.57v-1.657h-4.57v-2.209h5.274z" opacity=".95" fill="#fff"/><path fill-rule="evenodd" clip-rule="evenodd" d="M26 152h160.795v-31.96c0-3.784 0-5.676-.618-7.168a8.118 8.118 0 00-4.395-4.395c-1.492-.619-3.384-.619-7.168-.619H38.181c-3.783 0-5.675 0-7.168.619a8.12 8.12 0 00-4.395 4.395C26 114.364 26 116.256 26 120.04V152z" fill="#FFE959"/><g clip-path="url(#clip1_63_12798)" fill="#000"><path d="M80.906 125.911h2.778l-4.208 14.126h-3.97l-4.208-14.126h2.777l3.416 11.773 3.415-11.773zm10.486 14.136h-2.104l-.193-.702a5.644 5.644 0 01-3.075.912c-1.887 0-2.693-1.294-2.693-3.075 0-2.104.911-2.907 3.012-2.907h2.483v-1.08c0-1.147-.32-1.55-1.975-1.55-.962.009-1.92.116-2.861.319l-.32-1.975a13.545 13.545 0 013.543-.487c3.243 0 4.208 1.147 4.208 3.735l-.025 6.81zm-2.584-3.903h-1.911c-.85 0-1.08.235-1.08 1.02 0 .719.23 1.052 1.052 1.052a4.116 4.116 0 001.953-.529l-.014-1.543zm6.659-6.435v7.21c0 .551.232.828.828.828s1.753-.383 2.693-.87v-7.168h2.588v10.338h-1.974l-.253-.87a10.304 10.304 0 01-4.138 1.084c-1.718 0-2.332-1.21-2.332-3.054v-7.487l2.588-.011zm7.487 10.338v-14.55l2.588-.35v14.9h-2.588zm10.306-.2a7.209 7.209 0 01-2.268.403c-1.887 0-2.844-.89-2.844-2.735v-5.751h-1.547v-2.055h1.547v-2.567l2.588-.351v2.929h2.651l-.169 2.054h-2.482v5.411a.815.815 0 00.932.912 4.894 4.894 0 001.294-.214l.298 1.964zm-72.643-17.755L51.8 143.855l11.26-21.763H40.618zm9.43 8.641h-1.753v-1.782h1.753v1.782zm0-2.672h-1.753v-1.782h1.753v1.782zm2.672 5.344h-1.77v-1.774h1.78l-.01 1.774zm0-2.672h-1.77v-1.782h1.78l-.01 1.782zm0-2.672h-1.77v-1.782h1.78l-.01 1.782zm2.658 2.672h-1.77v-1.782h1.78l-.01 1.782zm-1.781-2.672v-1.782h1.781v1.782h-1.781z"/></g><g opacity=".95" fill="#fff"><path d="M104.543 264.988l-9.29 5.358v12.873l3.49 2.015v-12.873l5.8-3.348v-4.025z"/><path d="M108.252 264.988v10.251h-3.709v-3.825l-3.491 2.015v13.133l3.491 2.019v-10.222h3.709v3.8l3.489-2.014v-13.142l-3.489-2.015z"/><path d="M108.251 288.585l9.29-5.358v-12.873l-3.492-2.014v12.872l-5.798 3.348v4.025z"/></g><path d="M469.517 161.897v131.118c0 2.89-.023 3.808-.235 4.601l2.746.735-2.746-.735a6.898 6.898 0 01-1.787 3.094c-.579.58-1.363 1.059-3.866 2.504l-65.78 37.973c-2.502 1.444-3.309 1.883-4.1 2.095a6.894 6.894 0 01-3.573 0c-.792-.212-1.599-.651-4.101-2.095l-65.78-37.973c-2.502-1.445-3.286-1.924-3.866-2.504a6.907 6.907 0 01-1.787-3.094l-2.745.735 2.745-.735c-.212-.792-.235-1.711-.235-4.601V161.897c0-1.931.001-3.237.07-4.25.068-.988.19-1.489.332-1.831a5.279 5.279 0 012.856-2.857c.343-.141.843-.263 1.831-.331 1.013-.069 2.319-.071 4.25-.071h136.432c1.931 0 3.237.002 4.25.071.988.068 1.489.19 1.831.331a5.284 5.284 0 012.857 2.857c.141.342.263.843.331 1.831.069 1.013.07 2.319.07 4.25z" fill="#000" stroke="#000" stroke-width="5.685"/><path d="M372.348 259.827c1.627 0 2.719-1.452 2.719-3.489s-1.082-3.498-2.7-3.498c-1.627 0-2.709 1.461-2.709 3.518 0 2.027 1.072 3.469 2.69 3.469zm.029-.926c-1.013 0-1.637-1.052-1.637-2.612 0-1.51.594-2.514 1.598-2.514 1.014 0 1.657 1.082 1.657 2.602 0 1.481-.624 2.524-1.618 2.524zm6.119.926c1.627 0 2.719-1.452 2.719-3.489s-1.082-3.498-2.7-3.498c-1.627 0-2.709 1.461-2.709 3.518 0 2.027 1.072 3.469 2.69 3.469zm.029-.926c-1.014 0-1.637-1.052-1.637-2.612 0-1.51.594-2.514 1.598-2.514 1.013 0 1.657 1.082 1.657 2.602 0 1.481-.624 2.524-1.618 2.524zm3.39.848h4.668v-.994h-3.177l1.013-.897c1.131-1.003 2.115-1.705 2.115-2.913 0-1.209-.965-2.105-2.271-2.105-1.393 0-2.368.896-2.426 2.231h1.121c.087-.75.594-1.237 1.296-1.237.721 0 1.198.458 1.198 1.159 0 .799-.75 1.316-1.988 2.378l-1.549 1.335v1.043z" opacity=".94" fill="#fff"/><path d="M331.603 259.749h.789v-3.138h3.557v3.138h.789v-6.822h-.789v3.002h-3.557v-3.002h-.789v6.822zm9.581.058c1.578 0 2.66-1.013 2.884-2.319h-.818c-.185.838-.975 1.559-2.057 1.559-1.335 0-2.26-1.101-2.26-2.66 0-1.618.935-2.777 2.299-2.777 1.053 0 1.823.711 2.018 1.559h.818c-.204-1.306-1.286-2.3-2.826-2.3-1.832 0-3.147 1.432-3.147 3.508 0 2.017 1.325 3.43 3.089 3.43zm6.937 0c1.579 0 2.661-1.013 2.885-2.319h-.819c-.185.838-.974 1.559-2.056 1.559-1.335 0-2.261-1.101-2.261-2.66 0-1.618.936-2.777 2.3-2.777 1.053 0 1.823.711 2.017 1.559h.819c-.205-1.306-1.286-2.3-2.826-2.3-1.832 0-3.148 1.432-3.148 3.508 0 2.017 1.326 3.43 3.089 3.43zm4.321-.058l.682-1.842h2.934l.701 1.842h.858l-2.621-6.822h-.809l-2.602 6.812.857.01zm.926-2.573l1.228-3.362 1.228 3.362h-2.456zm7.607 2.67c1.569 0 2.573-1.383 2.573-3.469 0-2.095-.994-3.489-2.553-3.489s-2.563 1.394-2.563 3.489c0 2.086.994 3.469 2.543 3.469zm.02-.691c-1.121 0-1.813-1.092-1.813-2.807 0-1.676.682-2.768 1.784-2.768 1.13 0 1.832 1.111 1.832 2.807 0 1.676-.692 2.768-1.803 2.768zm3.975-2.281h3.411v-.565h-3.411v.565z" opacity=".94" fill="#F85C94"/><path d="M455.691 213.044l1.603 3.477 3.803.451-2.811 2.6.746 3.756-3.341-1.871-3.342 1.871.746-3.756-2.811-2.6 3.803-.451 1.604-3.477z" fill="#fff"/><path d="M455.691 228.635l1.603 3.477 3.803.451-2.811 2.6.746 3.755-3.341-1.87-3.342 1.87.746-3.755-2.811-2.6 3.803-.451 1.604-3.477zm-.001 15.589l1.603 3.478 3.803.45-2.811 2.6.746 3.756-3.341-1.87-3.342 1.87.746-3.756-2.811-2.6 3.803-.45 1.604-3.478z" fill="#000"/><path opacity=".95" d="M336.346 224.323c2.25 0 3.907-1.284 4.501-2.899l-1.049-.276c-.484 1.215-1.74 2.14-3.466 2.14-2.347 0-3.893-1.837-3.893-4.018 0-2.126 1.546-3.934 3.893-3.934 1.726 0 2.996.938 3.466 2.139l1.076-.262c-.579-1.615-2.264-2.913-4.542-2.913-2.844 0-4.997 2.168-4.997 4.984 0 2.858 2.153 5.039 5.011 5.039zm13.369-8.836v-1.007h-6.806v9.664h6.793v-1.008H344v-3.424h5.011v-.966H344v-3.259h5.715zm8.657 8.657h1.27l-2.595-3.852c1.574-.29 2.416-1.574 2.416-2.872 0-1.408-1.077-2.94-3.065-2.94h-4.473v9.664h1.091v-3.797h2.83l2.526 3.797zm-5.356-8.67h3.354c1.257 0 2.03.938 2.03 1.946 0 1.022-.759 1.947-2.043 1.947h-3.341v-3.893zm16.066-.994h-8.242v1.007h3.576v8.657h1.105v-8.657h3.561v-1.007zm1.656 9.664h1.105v-9.664h-1.105v9.664zm10.292-8.657v-1.007h-6.696v9.664h1.105v-4.294h4.887v-.98h-4.887v-3.383h5.591zm1.713 8.657h1.105v-9.664h-1.105v9.664zm10.403-8.657v-1.007h-6.807v9.664h6.793v-1.008h-5.702v-3.424h5.011v-.966h-5.011v-3.259h5.716zm5.881-1.007h-3.672v9.664h3.672c2.996 0 4.75-2.057 4.75-4.832s-1.754-4.832-4.75-4.832zm-.013 8.656h-2.568v-7.662h2.568c2.36 0 3.658 1.684 3.658 3.81 0 2.195-1.298 3.852-3.658 3.852zm-60.307 19.008h1.974l-3.714-9.664h-2.457l-3.7 9.664h1.961l.8-2.099h4.349l.787 2.099zm-4.515-3.769l1.547-4.087 1.546 4.087h-3.093zm11.422 3.962c2.319 0 3.866-1.339 3.866-2.996 0-1.574-1.119-2.195-2.596-2.651l-2.402-.773c-.635-.193-.925-.483-.925-.911 0-.566.607-1.049 1.56-1.049 1.091 0 1.988.538 2.388 1.325l1.754-.511c-.525-1.339-2.071-2.485-4.156-2.485-2.015 0-3.479 1.27-3.465 2.775-.014 1.243.911 2.057 2.181 2.458l2.472.773c.925.303 1.27.649 1.27 1.159 0 .636-.704 1.215-1.836 1.215-1.395 0-2.375-.8-2.762-1.808l-1.808.552c.538 1.505 2.098 2.927 4.459 2.927zm9.461 0c2.319 0 3.865-1.339 3.865-2.996 0-1.574-1.118-2.195-2.595-2.651l-2.402-.773c-.635-.193-.925-.483-.925-.911 0-.566.607-1.049 1.56-1.049 1.09 0 1.988.538 2.388 1.325l1.753-.511c-.524-1.339-2.07-2.485-4.155-2.485-2.016 0-3.479 1.27-3.465 2.775-.014 1.243.911 2.057 2.181 2.458l2.471.773c.925.303 1.27.649 1.27 1.159 0 .636-.704 1.215-1.836 1.215-1.394 0-2.374-.8-2.761-1.808l-1.808.552c.538 1.505 2.098 2.927 4.459 2.927zm10.179 0c2.913 0 5.066-2.181 5.066-5.039 0-2.844-2.153-5.012-5.066-5.012-2.927 0-5.081 2.168-5.081 5.012 0 2.858 2.154 5.039 5.081 5.039zm0-1.753c-1.919 0-3.162-1.436-3.162-3.286 0-1.809 1.243-3.258 3.162-3.258 1.905 0 3.161 1.449 3.161 3.258 0 1.85-1.256 3.286-3.161 3.286zm11.55 1.753c2.554 0 4.183-1.56 4.625-3.106l-1.836-.47c-.318.953-1.353 1.795-2.817 1.795-1.905 0-3.12-1.533-3.12-3.272 0-1.74 1.215-3.217 3.12-3.217 1.464 0 2.499.87 2.817 1.809l1.85-.456c-.442-1.532-2.071-3.134-4.68-3.134-2.872 0-5.039 2.168-5.039 5.012 0 2.858 2.167 5.039 5.08 5.039zm6.371-.193h1.919v-9.664h-1.919v9.664zm11.177 0h1.974l-3.714-9.664h-2.457l-3.7 9.664h1.96l.801-2.099h4.349l.787 2.099zm-4.515-3.769l1.547-4.087 1.546 4.087h-3.093zm14.354-5.895h-8.38v1.711h3.245v7.953h1.891v-7.953h3.244v-1.711zm8.639 1.711v-1.711h-7.124v9.664h7.11v-1.712h-5.26v-2.375h4.57V236.4h-4.57v-2.209h5.274z" fill="#fff"/><path fill-rule="evenodd" clip-rule="evenodd" d="M471.932 162.043v134.766-101.783H311.137v-32.983c0-3.784 0-5.676.618-7.168a8.118 8.118 0 014.395-4.395c1.492-.619 3.384-.619 7.168-.619h136.433c3.784 0 5.675 0 7.168.619a8.118 8.118 0 014.395 4.395c.618 1.492.618 3.384.618 7.168zM394.26 349.587h-5.451l.167.048a9.758 9.758 0 005.284-.048z" fill="#E03875"/><g clip-path="url(#clip2_63_12798)" fill="#fff"><path d="M360.62 171.472c0-2.52 1.468-3.988 4.897-3.988a15.686 15.686 0 013.755.454l-.29 2.253a20.122 20.122 0 00-3.366-.341c-1.8 0-2.391.618-2.391 2.086v5.279c0 1.465.577 2.086 2.391 2.086a20.122 20.122 0 003.366-.341l.29 2.254c-1.229.302-2.49.454-3.755.454-3.415 0-4.897-1.469-4.897-3.988v-6.208zm14.214 10.185c-3.452 0-4.377-1.905-4.377-3.954v-2.554c0-2.048.929-3.967 4.381-3.967s4.377 1.902 4.377 3.967v2.554c-.003 2.049-.932 3.954-4.381 3.954zm0-8.328c-1.345 0-1.86.601-1.86 1.738v2.705c0 1.137.515 1.734 1.86 1.734 1.346 0 1.858-.597 1.858-1.734v-2.705c0-1.12-.516-1.738-1.858-1.738zm12.043 8.13v-7.034c0-.536-.229-.805-.806-.805-.577 0-1.707.372-2.625.846v6.993h-2.52V171.39h1.922l.243.85a10.074 10.074 0 014.029-1.055c1.673 0 2.274 1.178 2.274 2.974v7.3h-2.517zm7.703.198a11.825 11.825 0 01-3.469-.58l.342-1.919c.974.278 1.981.424 2.994.434 1.117 0 1.281-.25 1.281-1.025 0-.618-.123-.928-1.755-1.321-2.459-.598-2.749-1.219-2.749-3.162 0-2.025.888-2.913 3.756-2.913a13.184 13.184 0 013.015.342l-.222 2.025a17.875 17.875 0 00-2.769-.291c-1.096 0-1.281.25-1.281.868 0 .806.062.867 1.428 1.219 2.806.744 3.073 1.116 3.073 3.182-.007 1.943-.605 3.141-3.644 3.141zm7.809-10.267v7.024c0 .536.225.805.806.805.58 0 1.707-.372 2.622-.846v-6.983h2.52v10.069h-1.919l-.249-.846a10.062 10.062 0 01-4.029 1.055c-1.673 0-2.271-1.178-2.271-2.978v-7.3h2.52zm8.116 10.069v-14.18l2.52-.342v14.522h-2.52zm-68.901 3.958a10.847 10.847 0 01-10.78-9.612 10.854 10.854 0 013.68-9.435 10.847 10.847 0 0114.442.226l-2.565 2.691a7.128 7.128 0 00-7.668-1.219 7.125 7.125 0 107.668 11.804l2.565 2.68a10.81 10.81 0 01-7.342 2.865zm8.728-5.426a.892.892 0 01-.82-.548.892.892 0 01.192-.967.885.885 0 01.968-.193.884.884 0 01.548.82.889.889 0 01-.888.888z"/><path d="M341.536 176.921a2.347 2.347 0 01-1.661-4.01 2.354 2.354 0 012.56-.509 2.352 2.352 0 011.45 2.17 2.35 2.35 0 01-2.349 2.349zm9.817.035a.886.886 0 01-.871-1.061.885.885 0 011.21-.647.886.886 0 01-.339 1.708zm-2.643-.103a.89.89 0 01-.871-1.061.893.893 0 01.698-.697.883.883 0 01.911.377.885.885 0 01-.11 1.121.888.888 0 01-.628.26zm2.643-2.885a.886.886 0 01-.871-1.061.893.893 0 01.697-.698.891.891 0 011.061.871.889.889 0 01-.887.888zm-2.643.102a.89.89 0 01-.871-1.061.893.893 0 01.698-.697.892.892 0 01.911.377.886.886 0 01-.738 1.381zm1.673-3.09a.89.89 0 01-.871-1.061.886.886 0 01.698-.697.892.892 0 01.911.377.885.885 0 01-.11 1.121.888.888 0 01-.628.26z"/></g><g opacity=".95" fill="#fff"><path d="M389.68 306.991l-9.289 5.358v12.873l3.489 2.015v-12.873l5.8-3.348v-4.025z"/><path d="M393.389 306.991v10.251h-3.708v-3.825l-3.492 2.015v13.133l3.492 2.019v-10.222h3.708v3.8l3.49-2.015v-13.141l-3.49-2.015z"/><path d="M393.389 330.588l9.289-5.358v-12.873l-3.491-2.015v12.873l-5.798 3.348v4.025z"/></g><defs><linearGradient id="paint0_linear_63_12798" x1="425.059" y1="258.761" x2="451.972" y2="430.587" gradientUnits="userSpaceOnUse"><stop stop-color="#922479"/><stop offset="1" stop-color="#96267A" stop-opacity="0"/></linearGradient><linearGradient id="paint1_linear_63_12798" x1="382.863" y1="280.926" x2="332.702" y2="411.877" gradientUnits="userSpaceOnUse"><stop stop-color="#E771A4"/><stop offset="1" stop-color="#F81696" stop-opacity=".14"/></linearGradient><linearGradient id="paint2_linear_63_12798" x1="300.895" y1="127.818" x2="333.429" y2="335.535" gradientUnits="userSpaceOnUse"><stop stop-color="#532A7D"/><stop offset="1" stop-color="#33197C" stop-opacity="0"/></linearGradient><linearGradient id="paint3_linear_63_12798" x1="249.884" y1="154.613" x2="189.245" y2="312.917" gradientUnits="userSpaceOnUse"><stop stop-color="#76A0F3"/><stop offset="1" stop-color="#522AC2" stop-opacity="0"/></linearGradient><linearGradient id="paint4_linear_63_12798" x1="139.778" y1="233.463" x2="146.596" y2="401.016" gradientUnits="userSpaceOnUse"><stop stop-color="#9B7003"/><stop offset="1" stop-color="#DF706F" stop-opacity="0"/></linearGradient><linearGradient id="paint5_linear_63_12798" x1="97" y1="246" x2="70.252" y2="392.102" gradientUnits="userSpaceOnUse"><stop offset=".19" stop-color="#FECA13" stop-opacity=".76"/><stop offset="1" stop-color="#E36666" stop-opacity=".06"/></linearGradient><clipPath id="clip0_63_12798"><path fill="#fff" transform="translate(194.801 24.26)" d="M0 0h110.918v31.185H0z"/></clipPath><clipPath id="clip1_63_12798"><path fill="#fff" transform="translate(40.617 117.604)" d="M0 0h72.941v30.86H0z"/></clipPath><clipPath id="clip2_63_12798"><path fill="#fff" transform="translate(330.754 159.606)" d="M0 0h82.29v30.048H0z"/></clipPath></defs></svg>